<?xml version="1.0" standalone="no"?>
<!DOCTYPE svg PUBLIC "-//W3C//DTD SVG 20010904//EN"
 "http://www.w3.org/TR/2001/REC-SVG-20010904/DTD/svg10.dtd">
<svg version="1.0" xmlns="http://www.w3.org/2000/svg"
 width="1024.000000pt" height="1024.000000pt" viewBox="0 0 1024.000000 1024.000000"
 preserveAspectRatio="xMidYMid meet">
<metadata>
Created by potrace 1.16, written by Peter Selinger 2001-2019
</metadata>
<g transform="translate(0.000000,1024.000000) scale(0.100000,-0.100000)"
fill="#000000" stroke="none">
<path d="M0 5120 l0 -5120 5120 0 5120 0 0 5120 0 5120 -5120 0 -5120 0 0
-5120z m5630 3796 c529 -67 946 -188 1395 -405 986 -477 1692 -1308 1929
-2271 64 -257 81 -410 81 -720 -1 -310 -18 -466 -81 -720 -328 -1335 -1552
-2382 -3084 -2639 -214 -36 -396 -52 -660 -58 -266 -6 -518 9 -733 43 -55 9
-109 13 -122 10 -13 -3 -120 -64 -237 -135 -117 -71 -483 -293 -813 -494
l-600 -364 -5 828 c-6 939 5 835 -95 907 -726 527 -1211 1271 -1359 2082 -38
211 -50 376 -43 629 6 227 18 339 57 532 55 269 163 564 298 819 63 119 259
421 314 485 15 17 57 66 94 110 95 113 229 249 369 374 112 100 284 237 312
248 7 3 10 10 6 17 -3 6 -3 8 2 4 4 -4 53 24 109 61 55 37 131 85 169 105 39
22 64 42 60 48 -3 6 -1 8 4 5 6 -4 87 31 179 77 481 240 997 384 1564 435 159
14 740 6 890 -13z"/>
<path d="M4885 8703 c-255 -14 -554 -60 -824 -128 -691 -174 -1290 -513 -1756
-996 -468 -485 -753 -1068 -841 -1720 -21 -154 -24 -480 -5 -634 81 -683 389
-1298 897 -1796 165 -161 304 -275 467 -383 l109 -71 -6 -85 c-6 -90 -22
-1108 -19 -1174 3 -50 35 -86 77 -86 21 0 69 24 146 71 63 39 142 88 175 109
33 20 128 79 210 130 83 51 166 103 185 115 47 30 394 245 495 306 l80 48 111
-19 c189 -33 368 -44 694 -44 231 0 356 5 467 17 835 94 1578 402 2153 893
560 480 916 1061 1053 1720 45 217 52 288 52 544 -1 246 -5 299 -46 505 -163
820 -731 1588 -1547 2092 -683 421 -1514 630 -2327 586z m-1033 -1964 c192
-13 377 -41 489 -73 47 -14 169 -59 270 -100 458 -186 627 -186 1096 0 310
123 436 151 776 175 224 15 438 -11 757 -91 355 -89 628 -75 790 40 l30 21 0
-68 c0 -259 -35 -700 -71 -912 -80 -470 -274 -845 -627 -1212 -286 -299 -633
-449 -1037 -449 -252 0 -457 57 -820 230 -125 59 -166 74 -247 88 -91 15 -105
15 -196 0 -81 -14 -122 -29 -247 -88 -363 -173 -568 -230 -820 -230 -237 0
-450 51 -655 156 -140 72 -222 135 -361 273 -362 362 -564 746 -648 1232 -36
210 -71 652 -71 912 l0 68 30 -21 c162 -115 435 -129 790 -40 132 33 372 79
460 88 121 13 141 13 312 1z"/>
<path d="M2976 5877 c21 -95 114 -276 205 -396 272 -361 700 -504 1214 -406
95 18 227 54 238 64 10 10 -27 144 -65 235 -106 251 -273 420 -483 487 -100
32 -396 38 -693 14 -227 -18 -276 -16 -367 15 l-56 19 7 -32z"/>
<path d="M7291 5889 c-87 -30 -138 -32 -363 -14 -297 24 -593 18 -693 -14
-209 -67 -386 -248 -486 -497 -38 -94 -71 -216 -61 -225 10 -10 145 -46 237
-64 589 -113 1064 94 1324 577 42 76 104 234 99 248 -2 4 -27 -1 -57 -11z"/>
</g>
</svg>
